Coordinates
version=1
nRows=26
nColumns=24
inDegrees=yes

Units are S.I. units (second, meters, Newtons, ...)
Angles are in degrees.

endheader
time	pelvis_tilt	pelvis_list	pelvis_rotation	pelvis_tx	pelvis_ty	pelvis_tz	hip_flexion_r	hip_adduction_r	hip_rotation_r	knee_angle_r	ankle_angle_r	subtalar_angle_r	mtp_angle_r	hip_flexion_l	hip_adduction_l	hip_rotation_l	knee_angle_l	ankle_angle_l	subtalar_angle_l	mtp_angle_l	lumbar_extension	lumbar_bending	lumbar_rotation
      0.49500000	     -0.58366475	      5.42008852	      2.62824633	     -0.71048278	      0.97964007	      0.28614702	     28.18169157	     -4.03107212	     -0.47156048	    -15.00479957	      8.75457428	     -5.37900188	      0.24634038	    -13.77924954	      9.19695480	      5.12738190	     -7.91523633	     11.04051883	     -8.22649153	      0.39728025	     -0.05354390	     -3.36441459	     -0.61039005
      0.49916667	     -0.65854852	      5.43337171	      2.69644202	     -0.70454786	      0.97898300	      0.28640866	     28.15192441	     -4.02768376	     -0.56805150	    -15.03562233	      8.66577607	     -5.29667780	      0.31098636	    -13.67512289	      9.16633258	      5.01122582	     -8.67651162	     11.15687586	     -7.90988488	      0.50439826	      0.08001006	     -3.38356363	     -0.69526531
      0.50333333	     -0.70206696	      5.41679157	      2.76189963	     -0.69856494	      0.97842516	      0.28669093	     28.05846765	     -3.98524359	     -0.63273361	    -15.07742248	      8.50995377	     -5.29521790	      0.37999712	    -13.59081575	      9.10188128	      4.91106613	     -9.46483677	     11.26503966	     -7.60940047	      0.62158139	      0.17618349	     -3.36949620	     -0.76036481
      0.50750000	     -0.76614380	      5.40233075	      2.80298716	     -0.69256512	      0.97784125	      0.28701779	     28.01121927	     -3.93208689	     -0.67361850	    -15.22748288	      8.35952880	     -5.34339542	      0.48537937	    -13.44411150	      9.04307356	      4.73135068	    -10.32679837	     11.35127860	     -7.27355017	      0.79835792	      0.29494436	     -3.34924942	     -0.82909652
      0.51166667	     -0.82492377	      5.38890514	      2.86998924	     -0.68653329	      0.97732472	      0.28731226	     27.92757216	     -3.89018257	     -0.71772531	    -15.37548317	      8.12771146	     -5.36748173	      0.57865723	    -13.28752750	      8.98410494	      4.64122988	    -11.21641000	     11.38554045	     -7.01614520	      0.96430855	      0.42118481	     -3.33902652	     -0.86388962
      0.51583333	     -0.90301688	      5.35351346	      2.90223757	     -0.68047554	      0.97677456	      0.28766389	     27.88966099	     -3.80780856	     -0.73195670	    -15.62297839	      7.91070674	     -5.48206500	      0.72173211	    -13.06291456	      8.90327352	      4.42710115	    -12.19522519	     11.42459290	     -6.65586579	      1.22459812	      0.56550769	     -3.29331443	     -0.91907907
      0.52000000	     -0.94218637	      5.30476208	      2.94574565	     -0.67438586	      0.97634642	      0.28801704	     27.78021405	     -3.71402818	     -0.74741023	    -15.85722073	      7.61320378	     -5.60262603	      0.88592288	    -12.86070381	      8.80272464	      4.24982463	    -13.20461117	     11.40848455	     -6.33398203	      1.54271306	      0.67241009	     -3.23278827	     -0.95285446
      0.52416667	     -1.00140040	      5.24887852	      3.00599695	     -0.66825652	      0.97594199	      0.28830945	     27.69168336	     -3.63009834	     -0.81766278	    -16.13345423	      7.24979143	     -5.66505058	      0.95135722	    -12.64072594	      8.70866393	      4.21365271	    -14.20260430	     11.26683486	     -6.23200491	      1.68930462	      0.80188154	     -3.15347085	     -0.93677386
      0.52833333	     -1.04950074	      5.16479760	      3.03840709	     -0.66211440	      0.97555696	      0.28874636	     27.56685411	     -3.48009917	     -0.75172635	    -16.39466381	      6.99293803	     -5.99534013	      1.26999219	    -12.33233281	      8.55014530	      3.87774839	    -15.38073462	     11.19748614	     -5.68185976	      2.40482293	      0.93832001	     -3.05766739	     -0.95785202
      0.53250000	     -1.14321900	      5.13806649	      3.07222024	     -0.65600826	      0.97514221	      0.28909968	     27.52418651	     -3.40961255	     -0.73662037	    -16.72924248	      6.57965336	     -6.03541649	      1.37018546	    -11.98693492	      8.49270940	      3.78680692	    -16.53224107	     11.00482452	     -5.59547775	      2.66882216	      1.11752286	     -3.03675192	     -0.93680180
      0.53666667	     -1.21590277	      5.04658404	      3.07551232	     -0.64986271	      0.97478762	      0.28955579	     27.44456071	     -3.24135219	     -0.63680545	    -17.06379004	      6.20118022	     -6.51180402	      3.07771924	    -11.61137205	      8.34666624	      3.53347668	    -17.75359204	     10.67697524	     -5.41756502	      7.44721528	      1.27317988	     -2.91644950	     -0.87427079
      0.54083333	     -1.26043520	      4.97045792	      3.10458396	     -0.64369776	      0.97449884	      0.28993995	     27.34396152	     -3.12591886	     -0.68383578	    -17.43519377	      5.82170606	     -6.47165318	      3.08775783	    -11.23576885	      8.21424250	      3.33977080	    -19.04021279	     10.38759736	     -5.15034828	      7.51290666	      1.40183198	     -2.82575862	     -0.87360140
      0.54500000	     -1.33822992	      4.88267179	      3.11655575	     -0.63756026	      0.97418994	      0.29038372	     27.28346106	     -2.97905928	     -0.64742465	    -17.82721146	      5.48511655	     -6.65299808	      3.10054452	    -10.77175422	      8.06758238	      3.10053328	    -20.40556226	     10.04113396	     -4.87616217	      7.64066217	      1.56849536	     -2.71810807	     -0.83321446
      0.54916667	     -1.37304136	      4.74338458	      3.11077899	     -0.63140311	      0.97397907	      0.29090891	     27.15954221	     -2.75779535	     -0.55341830	    -18.20209210	      5.20016386	     -7.06615589	      3.13075826	    -10.30977590	      7.84578154	      2.78494794	    -21.83198084	      9.64004685	     -4.49938833	      8.03434060	      1.68253946	     -2.54791486	     -0.77062872
      0.55333333	     -1.43494182	      4.63227914	      3.11256558	     -0.62527094	      0.97377250	      0.29136555	     27.07652536	     -2.58851966	     -0.52617111	    -18.59362695	      4.82587988	     -7.15547981	      3.13666033	     -9.79258744	      7.67460361	      2.57383776	    -23.28848335	      9.11117392	     -4.36874272	      8.23427826	      1.83367615	     -2.42146703	     -0.70180651
      0.55750000	     -1.45499201	      4.47378445	      3.09636387	     -0.61914756	      0.97362837	      0.29194099	     26.94366744	     -2.34025497	     -0.41184717	    -18.99679807	      4.61842997	     -7.65352753	      3.15176611	     -9.25730714	      7.41423130	      2.22544510	    -24.83803096	      8.57181591	     -3.96172968	      8.97665253	      1.92663688	     -2.22342094	     -0.59882982
      0.56166667	     -1.50760817	      4.31842495	      3.07933701	     -0.61303979	      0.97348228	      0.29245809	     26.85319917	     -2.11149612	     -0.34547488	    -19.40381512	      4.31887593	     -7.87241507	      3.12187135	     -8.66498886	      7.18007498	      1.96807773	    -26.39715733	      7.81693317	     -3.96747564	     13.97081023	      2.06538775	     -2.02814428	     -0.51019089
      0.56583333	     -1.52569436	      4.17550798	      3.04272010	     -0.60695766	      0.97336386	      0.29301044	     26.75648531	     -1.89793277	     -0.31881488	    -19.87465628	      4.13041635	     -7.90564997	      3.11610882	     -8.06559107	      6.94119754	      1.65500912	    -28.02387606	      7.08199742	     -3.70560829	     14.04438528	      2.15534141	     -1.85685954	     -0.42282417
      0.57000000	     -1.54521126	      3.99179819	      3.02192877	     -0.60088870	      0.97330969	      0.29356916	     26.62568017	     -1.63774755	     -0.25276605	    -20.28067605	      3.99952644	     -8.05264457	      3.10397082	     -7.42349703	      6.65095573	      1.37036640	    -29.70057205	      6.24672317	     -3.52597847	     14.15574255	      2.25895008	     -1.64353533	     -0.32251214
      0.57416667	     -1.52164508	      3.77500583	      2.99444004	     -0.59487074	      0.97330889	      0.29418330	     26.46066853	     -1.33188945	     -0.17609416	    -20.71770010	      3.90195080	     -8.44207803	      3.05680907	     -6.78106525	      6.30287255	      1.05673752	    -31.43565564	      5.38896287	     -3.23673305	     14.50072060	      2.28668209	     -1.38153334	     -0.18616928
      0.57833333	     -1.52299954	      3.55932259	      2.96570046	     -0.58888177	      0.97329818	      0.29477613	     26.32214112	     -1.03274856	     -0.10713968	    -21.15036648	      3.86576108	     -8.67871088	      2.97913443	     -6.07828094	      5.95850483	      0.76636866	    -33.20045368	      4.41392113	     -3.05660463	     15.02121458	      2.35183127	     -1.12780905	     -0.05688157
      0.58250000	     -1.51367641	      3.33020705	      2.90575907	     -0.58292848	      0.97329165	      0.29538959	     26.18944274	     -0.71412750	     -0.04520800	    -21.60681919	      3.86009472	     -8.73432120	      2.93111348	     -5.35883799	      5.59911055	      0.45834716	    -34.99212858	      3.40049638	     -2.97667658	     15.31799267	      2.39610428	     -0.84409979	      0.03299412
      0.58666667	     -1.47466431	      3.07167447	      2.86299818	     -0.57700303	      0.97336953	      0.29601635	     25.99714425	     -0.36328761	      0.02262164	    -22.01502068	      3.92359664	     -8.90407549	      2.87098553	     -4.63770839	      5.19040570	      0.17021431	    -36.80774002	      2.29378846	     -2.87410400	     15.64335466	      2.40820218	     -0.53684009	      0.15204890
      0.59083333	     -1.39277028	      2.79651905	      2.84048887	     -0.57110566	      0.97353684	      0.29662075	     25.74043481	     -0.00175599	      0.06327098	    -22.39430848	      4.05649552	     -9.07886956	      1.84009467	     -3.94222764	      4.75120208	     -0.07980363	    -38.61653797	      1.05052978	     -2.84927532	     20.13629300	      2.36104698	     -0.21786069	      0.24689255
      0.59500000	     -1.34146077	      2.53010445	      2.79767044	     -0.56527277	      0.97364953	      0.29722124	     25.53527494	      0.34906697	      0.09215007	    -22.79916619	      4.21659074	     -9.13860249	      1.83445238	     -3.18489086	      4.32977761	     -0.32092749	    -40.45555939	     -0.15981917	     -2.84084559	     20.13788785	      2.34683370	      0.10024789	      0.36592969
      0.59916667	     -1.28588401	      2.24611108	      2.76463532	     -0.55948778	      0.97378925	      0.29782181	     25.30361521	      0.71901131	      0.12487572	    -23.15706584	      4.41174485	     -9.22922353	      1.81969793	     -2.40711754	      3.88224047	     -0.53704697	    -42.30138701	     -1.39403931	     -2.84971525	     20.14056290	      2.32244741	      0.42778801	      0.47639544
